<mxfile host="Electron" modified="2023-11-15T19:22:43.260Z" agent="Mozilla/5.0 (Macintosh; Intel Mac OS X 10_15_7) AppleWebKit/537.36 (KHTML, like Gecko) draw.io/22.0.3 Chrome/114.0.5735.289 Electron/25.8.4 Safari/537.36" etag="SHLwBRBs4DD3n7xE3l4a" version="22.0.3" type="device">
  <diagram name="Page-1" id="LUHyc90OgK4m24WU1J9g">
    <mxGraphModel dx="289" dy="606" grid="1" gridSize="10" guides="1" tooltips="1" connect="1" arrows="1" fold="1" page="1" pageScale="1" pageWidth="827" pageHeight="1169" math="0" shadow="0">
      <root>
        <mxCell id="0" />
        <mxCell id="1" parent="0" />
        <mxCell id="Mb_HAAhhunMSKj-FEwA_-1" value="" style="ellipse;html=1;shape=startState;fillColor=#000000;strokeColor=#ff0000;" vertex="1" parent="1">
          <mxGeometry x="384" y="30" width="30" height="30" as="geometry" />
        </mxCell>
        <mxCell id="Mb_HAAhhunMSKj-FEwA_-2" value="" style="edgeStyle=orthogonalEdgeStyle;html=1;verticalAlign=bottom;endArrow=open;endSize=8;strokeColor=#ff0000;rounded=0;" edge="1" source="Mb_HAAhhunMSKj-FEwA_-1" parent="1">
          <mxGeometry relative="1" as="geometry">
            <mxPoint x="399" y="120" as="targetPoint" />
          </mxGeometry>
        </mxCell>
        <mxCell id="Mb_HAAhhunMSKj-FEwA_-3" value="Lire interet" style="rounded=1;whiteSpace=wrap;html=1;arcSize=40;fontColor=#000000;fillColor=#ffffc0;strokeColor=#ff0000;" vertex="1" parent="1">
          <mxGeometry x="339" y="120" width="120" height="40" as="geometry" />
        </mxCell>
        <mxCell id="Mb_HAAhhunMSKj-FEwA_-4" value="" style="edgeStyle=orthogonalEdgeStyle;html=1;verticalAlign=bottom;endArrow=open;endSize=8;strokeColor=#ff0000;rounded=0;" edge="1" source="Mb_HAAhhunMSKj-FEwA_-3" parent="1">
          <mxGeometry relative="1" as="geometry">
            <mxPoint x="399" y="220" as="targetPoint" />
          </mxGeometry>
        </mxCell>
        <mxCell id="Mb_HAAhhunMSKj-FEwA_-5" value="Lire somme" style="rounded=1;whiteSpace=wrap;html=1;arcSize=40;fontColor=#000000;fillColor=#ffffc0;strokeColor=#ff0000;" vertex="1" parent="1">
          <mxGeometry x="339" y="220" width="120" height="40" as="geometry" />
        </mxCell>
        <mxCell id="Mb_HAAhhunMSKj-FEwA_-6" value="" style="edgeStyle=orthogonalEdgeStyle;html=1;verticalAlign=bottom;endArrow=open;endSize=8;strokeColor=#ff0000;rounded=0;" edge="1" source="Mb_HAAhhunMSKj-FEwA_-5" parent="1">
          <mxGeometry relative="1" as="geometry">
            <mxPoint x="399" y="320" as="targetPoint" />
          </mxGeometry>
        </mxCell>
        <mxCell id="Mb_HAAhhunMSKj-FEwA_-7" value="Lire annees" style="rounded=1;whiteSpace=wrap;html=1;arcSize=40;fontColor=#000000;fillColor=#ffffc0;strokeColor=#ff0000;" vertex="1" parent="1">
          <mxGeometry x="339" y="320" width="120" height="40" as="geometry" />
        </mxCell>
        <mxCell id="Mb_HAAhhunMSKj-FEwA_-8" value="" style="edgeStyle=orthogonalEdgeStyle;html=1;verticalAlign=bottom;endArrow=open;endSize=8;strokeColor=#ff0000;rounded=0;" edge="1" source="Mb_HAAhhunMSKj-FEwA_-7" parent="1">
          <mxGeometry relative="1" as="geometry">
            <mxPoint x="399" y="420" as="targetPoint" />
          </mxGeometry>
        </mxCell>
        <mxCell id="Mb_HAAhhunMSKj-FEwA_-11" style="edgeStyle=orthogonalEdgeStyle;rounded=0;orthogonalLoop=1;jettySize=auto;html=1;exitX=0.5;exitY=1;exitDx=0;exitDy=0;" edge="1" parent="1" source="Mb_HAAhhunMSKj-FEwA_-9">
          <mxGeometry relative="1" as="geometry">
            <mxPoint x="399" y="500" as="targetPoint" />
          </mxGeometry>
        </mxCell>
        <mxCell id="Mb_HAAhhunMSKj-FEwA_-9" value="interetSimple &amp;lt;-- somme*(1+annees*interet/100)" style="rounded=1;whiteSpace=wrap;html=1;arcSize=40;fontColor=#000000;fillColor=#ffffc0;strokeColor=#ff0000;" vertex="1" parent="1">
          <mxGeometry x="313.5" y="420" width="171" height="40" as="geometry" />
        </mxCell>
        <mxCell id="Mb_HAAhhunMSKj-FEwA_-12" value="interetComposÃ© &amp;lt;-- somme*(1+interet/100)^annees" style="rounded=1;whiteSpace=wrap;html=1;arcSize=40;fontColor=#000000;fillColor=#ffffc0;strokeColor=#ff0000;" vertex="1" parent="1">
          <mxGeometry x="323.5" y="500" width="151" height="40" as="geometry" />
        </mxCell>
        <mxCell id="Mb_HAAhhunMSKj-FEwA_-13" value="" style="edgeStyle=orthogonalEdgeStyle;html=1;verticalAlign=bottom;endArrow=open;endSize=8;strokeColor=#ff0000;rounded=0;" edge="1" source="Mb_HAAhhunMSKj-FEwA_-12" parent="1">
          <mxGeometry relative="1" as="geometry">
            <mxPoint x="399" y="600" as="targetPoint" />
          </mxGeometry>
        </mxCell>
        <mxCell id="Mb_HAAhhunMSKj-FEwA_-14" value="Afficher interetCompose" style="rounded=1;whiteSpace=wrap;html=1;arcSize=40;fontColor=#000000;fillColor=#ffffc0;strokeColor=#ff0000;" vertex="1" parent="1">
          <mxGeometry x="339" y="600" width="120" height="40" as="geometry" />
        </mxCell>
        <mxCell id="Mb_HAAhhunMSKj-FEwA_-15" value="" style="edgeStyle=orthogonalEdgeStyle;html=1;verticalAlign=bottom;endArrow=open;endSize=8;strokeColor=#ff0000;rounded=0;" edge="1" source="Mb_HAAhhunMSKj-FEwA_-14" parent="1">
          <mxGeometry relative="1" as="geometry">
            <mxPoint x="399" y="700" as="targetPoint" />
          </mxGeometry>
        </mxCell>
        <mxCell id="Mb_HAAhhunMSKj-FEwA_-16" value="" style="ellipse;html=1;shape=endState;fillColor=#000000;strokeColor=#ff0000;" vertex="1" parent="1">
          <mxGeometry x="384" y="700" width="30" height="30" as="geometry" />
        </mxCell>
      </root>
    </mxGraphModel>
  </diagram>
</mxfile>
